<svg height="800" viewBox="0 0 1125.628 1125.628" width="800" xmlns="http://www.w3.org/2000/svg"><path d="m562.812.002c-310.336 0-562.812 252.476-562.812 562.812s252.476 562.812 562.812 562.812c310.34 0 562.816-252.476 562.816-562.812s-252.476-562.812-562.816-562.812zm-13.293 701.49c-14 15.033-28.964 28.403-52.992 40.11-24.032 11.711-54.35 17.564-91.051 17.564-46.662 0-85.943-14.504-115.476-43.517-29.537-29.009-45.481-66.672-45.481-112.986v-79.694c0-46.139 15.398-83.758 43.801-112.856 28.398-29.099 65.568-43.648 110.311-43.648 46.487 0 82.395 11.318 107.126 33.948 24.729 22.635 37.507 52.898 38.031 89.77l-.374 2.081h-72.092c-1.401-22-7.864-36.816-19.399-48.613-11.534-11.796-28.402-17.949-50.594-17.949-23.422 0-41.642 8.909-55.969 26.981-14.332 18.073-20.841 41.207-20.841 69.667v80.144c0 28.984 6.77 52.512 21.627 70.585 14.853 18.072 34.539 27.104 59.705 27.104 17.826 0 32.671-1.827 43.51-5.489 10.834-3.658 16.159-8.188 25.159-13.591v-69.838h-71v-53h146v143.227zm331-271.229h-190v106h163v57h-163v159h-75v-379h265z"/></svg>