<svg height="800" viewBox="0 0 1024 1024" width="800" xmlns="http://www.w3.org/2000/svg"><path d="m608 224v-64a32 32 0 0 0 -64 0v336h26.88a64 64 0 0 0 37.12-11.904zm101.12 160a64 64 0 0 0 -37.12 11.904v-11.904h64v-160a32 32 0 1 0 -64 0v160zm74.88 0a92.928 92.928 0 0 1 91.328 110.08l-60.672 323.584a96 96 0 0 1 -94.336 78.336h-416.64a96 96 0 0 1 -94.336-78.336l-60.672-323.584a92.928 92.928 0 0 1 91.328-110.08h-16v-160a96 96 0 0 1 188.608-25.28 95.744 95.744 0 0 1 67.392-1.28v-37.44a96 96 0 0 1 188.608-25.28 96 96 0 0 1 131.392 89.28v160zm-113.216 128a128 128 0 0 1 -99.904 48h-117.76a128 128 0 0 1 -99.84-48h-1.28v-1.536a128.128 128.128 0 0 1 -9.984-14.976l-27.136-47.488h-74.88a28.928 28.928 0 0 0 -28.48 34.304l29.568 157.696h541.824l29.568-157.696a28.928 28.928 0 0 0 -28.48-34.304h-74.88l-27.136 47.488a132.405 132.405 0 0 1 -9.984 14.976v1.536zm-190.784-224a32 32 0 0 0 -64 0v196.096a64 64 0 0 0 37.12 11.904h26.88zm-128 96v-160a32 32 0 0 0 -64 0v160h64-37.12a64 64 0 0 1 37.12 11.904zm-98.88 320 19.072 101.888a32 32 0 0 0 31.488 26.112h416.64a32 32 0 0 0 31.488-26.112l19.072-101.888z"/></svg>