<svg fill="none" height="800" viewBox="0 0 24 24" width="800" xmlns="http://www.w3.org/2000/svg"><path clip-rule="evenodd" d="m1.29537 3.70958c-.391888-.38916-.394102-1.02232-.00495-1.41421.38916-.39189 1.02232-.3941 1.41421-.00495 4.27016 4.2404 7.51647 9.32698 9.44877 15.47178.1448-.2825.2997-.5734.4622-.8687-.1304-.2129-.2228-.454-.2664-.7154l-.2292-1.375c-.7062-4.2376 2.0605-8.27642 6.2671-9.14858l1.0898-.22595c1.0891-.22583 2.1533.48047 2.3683 1.57187l.243 1.23394c.8716 4.42512-2.0852 8.69562-6.5339 9.43712l-.9035.1505c-.0933.0156-.1861.0244-.2781.0269-.3485.6326-.653 1.2311-.8891 1.7531-.1715.3793-.3001.7036-.3833.9623-.0414.1289-.0684.2317-.0843.31-.0138.0686-.0158.102-.0161.1076v.0008l-.0001-.0008c.0078.4298-.2599.8164-.665.9604-.405.1439-.8567.0129-1.1218-.3254l-8.81822-11.25c-.34071-.43466-.26454-1.06323.17013-1.40393.43467-.34071 1.06323-.26455 1.40394.17012l5.50638 7.02491c-1.87029-4.849-4.65478-8.94792-8.17986-12.44842zm14.41503 11.88792c3.0632-.7709 5.037-3.8214 4.4155-6.97664l-.243-1.23394-1.0898.22595c-3.1391.65084-5.2091 3.65293-4.708 6.81363.922-1.4408 1.9069-2.7973 2.6925-3.618.3819-.399 1.015-.4128 1.4139-.0309.399.382.4128 1.015.0309 1.4139-.6807.711-1.6122 1.9919-2.512 3.406z" fill="#000" fill-rule="evenodd"/></svg>