<svg height="630" viewBox="0 0 1200 630" width="1200" xmlns="http://www.w3.org/2000/svg"><path d="m0 0h1200v630h-1200z" fill="#2b2b2b"/><path d="m0 100h1200m-1200 100h1200m-1200 100h1200m-1200 100h1200m-1200 100h1200m-1000-500v630m200-630v630m200-630v630m200-630v630m200-630v630" opacity=".06" stroke="#fdf0d5"/><circle cx="180" cy="160" fill="#e63946" opacity=".5" r="12"/><circle cx="220" cy="200" fill="#e63946" opacity=".4" r="10"/><circle cx="150" cy="220" fill="#e63946" opacity=".3" r="8"/><circle cx="950" cy="140" fill="#2d6a4f" opacity=".5" r="11"/><circle cx="1010" cy="170" fill="#2d6a4f" opacity=".4" r="9"/><circle cx="980" cy="120" fill="#2d6a4f" opacity=".3" r="7"/><circle cx="1050" cy="450" fill="#1d3557" opacity=".5" r="10"/><circle cx="1090" cy="480" fill="#1d3557" opacity=".4" r="8"/><circle cx="130" cy="430" fill="#7b2cbf" opacity=".5" r="10"/><circle cx="170" cy="460" fill="#7b2cbf" opacity=".4" r="8"/><circle cx="250" cy="500" fill="#e76f51" opacity=".4" r="9"/><circle cx="900" cy="500" fill="#e07a5f" opacity=".4" r="9"/><path d="m0 610h1200v20h-1200z" fill="#e63946"/><g text-anchor="middle"><text dominant-baseline="central" font-size="100" x="600" y="130">🍽️</text><text fill="#fdf0d5" font-family="-apple-system, BlinkMacSystemFont, 'Segoe UI', Roboto, Helvetica, Arial, sans-serif" font-size="64" font-weight="700" letter-spacing=".02em" x="600" y="260">Santa Barbara</text><text fill="#fdf0d5" font-family="-apple-system, BlinkMacSystemFont, 'Segoe UI', Roboto, Helvetica, Arial, sans-serif" font-size="64" font-weight="700" letter-spacing=".02em" x="600" y="335">Food Week 2026</text><text fill="#e76f51" font-family="-apple-system, BlinkMacSystemFont, 'Segoe UI', Roboto, Helvetica, Arial, sans-serif" font-size="34" font-weight="400" x="600" y="395">TBD</text><text fill="#999" font-family="-apple-system, BlinkMacSystemFont, 'Segoe UI', Roboto, Helvetica, Arial, sans-serif" font-size="24" font-weight="400" x="600" y="455">Interactive Map of Restaurants joining Item Week</text><text fill="#666" font-family="-apple-system, BlinkMacSystemFont, 'Segoe UI', Roboto, Helvetica, Arial, sans-serif" font-size="22" font-weight="400" x="600" y="540">YOUR-DOMAIN.com</text></g></svg>